<?xml version="1.0" standalone="no"?>
<!DOCTYPE svg PUBLIC "-//W3C//DTD SVG 20010904//EN"
 "http://www.w3.org/TR/2001/REC-SVG-20010904/DTD/svg10.dtd">
<svg version="1.0" xmlns="http://www.w3.org/2000/svg"
 width="1250.000000pt" height="1250.000000pt" viewBox="0 0 1250.000000 1250.000000"
 preserveAspectRatio="xMidYMid meet">
<metadata>
Created by potrace 1.11, written by Peter Selinger 2001-2013
</metadata>
<g transform="translate(0.000000,1250.000000) scale(0.100000,-0.100000)"
fill="#000000" stroke="none">
<path d="M5939 12496 c-2 -2 -56 -7 -119 -10 -63 -4 -128 -9 -145 -11 -16 -2
-59 -6 -95 -9 -36 -3 -76 -8 -90 -10 -14 -3 -47 -7 -75 -11 -71 -9 -116 -15
-145 -20 -14 -3 -43 -7 -65 -11 -51 -7 -279 -52 -325 -64 -19 -5 -48 -12 -65
-15 -16 -3 -73 -16 -125 -30 -52 -14 -102 -27 -110 -30 -206 -54 -608 -195
-790 -278 -30 -13 -93 -41 -140 -62 -353 -157 -806 -427 -1145 -684 -621 -470
-1148 -1046 -1552 -1696 -295 -476 -538 -1018 -687 -1537 -25 -84 -92 -343
-101 -383 -28 -140 -55 -279 -60 -315 -3 -25 -8 -52 -10 -60 -2 -8 -7 -35 -10
-60 -3 -25 -8 -56 -10 -70 -5 -32 -12 -89 -20 -165 -3 -33 -8 -71 -10 -85 -3
-14 -7 -61 -10 -105 -3 -44 -8 -110 -11 -147 l-5 -68 1215 0 1214 0 0 -267 c1
-258 6 -404 16 -495 3 -24 8 -65 11 -93 60 -509 224 -998 491 -1461 81 -142
274 -420 336 -485 7 -8 31 -37 52 -64 66 -83 384 -395 490 -480 108 -86 131
-103 288 -211 345 -238 781 -432 1197 -533 66 -16 134 -32 153 -35 34 -6 54
-10 98 -20 14 -3 43 -8 65 -11 22 -3 71 -10 110 -16 38 -5 103 -12 145 -14 41
-3 97 -8 124 -11 98 -12 494 -4 596 11 14 2 54 7 90 10 36 4 72 9 82 10 9 2
38 7 65 11 26 3 57 8 68 10 11 2 34 7 50 10 17 3 59 12 95 20 36 9 76 18 90
20 176 34 524 162 767 281 179 87 471 261 481 285 2 4 8 8 13 8 9 0 174 122
226 166 12 11 32 28 45 38 112 92 316 292 428 421 380 437 645 936 805 1512
27 99 79 355 90 442 4 30 8 62 10 72 4 19 15 140 21 224 2 28 4 184 5 348 l1
297 1214 0 1214 0 -5 63 c-17 212 -19 235 -30 337 -7 58 -25 197 -30 230 -2
14 -7 45 -10 70 -4 25 -16 92 -27 150 -11 58 -22 116 -24 130 -12 64 -96 396
-124 485 -17 55 -32 108 -35 117 -5 23 -82 249 -96 284 -6 16 -15 38 -20 49
-4 11 -24 61 -43 111 -78 203 -249 558 -367 761 -28 49 -59 102 -70 120 -114
198 -396 598 -535 760 -11 12 -28 32 -38 45 -271 329 -646 686 -1016 967 -110
83 -347 251 -355 251 -2 0 -30 17 -62 39 -380 251 -913 503 -1408 666 -180 59
-485 143 -585 160 -19 3 -55 11 -80 17 -25 6 -54 12 -65 14 -11 1 -57 10 -102
18 -45 8 -101 18 -125 21 -24 3 -50 8 -58 10 -8 2 -40 7 -70 10 -59 6 -114 13
-170 20 -19 2 -66 7 -105 11 -38 3 -88 8 -110 10 -54 5 -771 14 -776 10z"/>
<path d="M25 5929 c-3 -9 -3 -31 -1 -50 3 -19 8 -79 11 -134 3 -55 8 -113 10
-130 2 -16 6 -55 10 -85 9 -82 14 -121 20 -160 3 -19 8 -48 10 -65 15 -121 51
-308 86 -455 12 -47 22 -92 24 -100 13 -61 29 -119 56 -210 17 -58 35 -121 39
-140 31 -122 190 -543 280 -740 62 -135 209 -421 264 -513 25 -43 46 -80 46
-82 0 -8 146 -235 228 -355 215 -314 442 -589 722 -871 169 -170 439 -416 489
-443 9 -5 21 -15 26 -22 25 -30 484 -364 500 -364 3 0 33 -19 67 -42 91 -60
127 -83 178 -111 25 -13 61 -34 80 -45 298 -176 747 -376 1115 -497 253 -83
618 -179 770 -201 22 -3 43 -8 46 -10 4 -2 38 -8 75 -14 38 -5 78 -12 90 -14
12 -2 45 -7 75 -11 30 -3 61 -8 69 -10 8 -3 38 -7 65 -10 28 -2 73 -7 100 -10
206 -23 365 -30 680 -30 271 0 468 7 570 19 33 4 115 13 203 22 31 3 64 7 72
10 8 2 35 6 60 9 51 6 79 11 165 26 33 6 74 13 90 16 28 4 82 16 230 48 105
23 383 97 430 115 11 4 74 24 140 45 66 20 124 41 129 46 6 5 16 9 22 9 13 0
244 89 349 135 447 194 899 457 1278 743 157 119 146 110 307 248 427 364 806
790 1127 1266 203 301 415 689 548 1003 21 50 44 105 52 122 69 161 237 667
257 776 2 12 9 42 16 67 7 25 13 52 15 60 2 8 10 45 19 83 9 37 18 82 21 100
4 17 10 51 16 75 5 23 12 59 14 80 3 20 8 48 11 62 5 30 9 52 23 145 17 113
21 147 27 200 2 28 6 66 9 85 4 32 7 74 20 258 2 34 1 63 -3 63 -24 4 -1844 3
-1847 -1 -1 -3 -6 -50 -10 -105 -8 -122 -11 -158 -20 -221 -25 -179 -28 -199
-31 -219 -3 -11 -7 -36 -10 -55 -29 -182 -114 -491 -199 -725 -78 -215 -230
-538 -333 -709 -23 -37 -42 -70 -42 -71 0 -9 -152 -232 -225 -330 -200 -269
-477 -566 -705 -751 -111 -91 -224 -177 -285 -219 -33 -22 -62 -42 -65 -45
-27 -30 -334 -212 -481 -286 -130 -65 -334 -156 -346 -155 -2 0 -26 -10 -55
-23 -56 -25 -306 -108 -398 -133 -60 -16 -203 -52 -235 -59 -43 -9 -181 -36
-200 -38 -68 -11 -113 -18 -135 -21 -14 -2 -52 -7 -85 -10 -33 -4 -71 -8 -85
-10 -158 -23 -764 -23 -850 0 -8 2 -45 7 -82 10 -37 3 -75 7 -85 9 -10 2 -38
7 -63 10 -61 8 -212 37 -300 56 -25 6 -55 13 -67 15 -167 35 -490 144 -709
238 -86 37 -317 151 -374 185 -19 12 -63 37 -98 56 -165 94 -466 308 -617 439
-529 461 -920 989 -1190 1612 -50 114 -123 308 -151 400 -52 169 -113 406
-127 490 -3 17 -12 68 -20 115 -20 114 -31 194 -41 295 -6 60 -19 211 -20 235
l-1 25 -928 0 c-841 0 -928 -1 -932 -16z"/>
</g>
</svg>
